<svg viewBox="0 0 1600 900" xmlns="http://www.w3.org/2000/svg">
<rect width="1600" height="900" fill="#0a2e1a"/>
<circle cx="1150" cy="250" r="224" fill="#ffd166" opacity="0.1"/>
<circle cx="1150" cy="250" r="147" fill="#ffd166" opacity="0.16"/>
<circle cx="1150" cy="250" r="98" fill="#ffd166" opacity="0.28"/>
<circle cx="1150" cy="250" r="70" fill="#ffd166" opacity="0.5"/><path d="M0,900 L0.0,661.0 L40.0,661.2 L80.0,661.5 L120.0,662.0 L160.0,662.5 L200.0,663.0 L240.0,663.5 L280.0,664.0 L320.0,664.2 L360.0,664.3 L400.0,664.0 L440.0,663.4 L480.0,662.4 L520.0,660.9 L560.0,659.0 L600.0,656.7 L640.0,653.9 L680.0,650.8 L720.0,647.5 L760.0,643.9 L800.0,640.3 L840.0,636.8 L880.0,633.5 L920.0,630.5 L960.0,628.0 L1000.0,626.1 L1040.0,624.9 L1080.0,624.6 L1120.0,625.1 L1160.0,626.6 L1200.0,628.9 L1240.0,632.2 L1280.0,636.4 L1320.0,641.3 L1360.0,646.9 L1400.0,653.0 L1440.0,659.4 L1480.0,666.0 L1520.0,672.6 L1560.0,679.1 L1600.0,685.2 L1600,900 Z" fill="#1a5c35" opacity="0.85"/><path d="M0,900 L0.0,764.8 L40.0,774.1 L80.0,782.8 L120.0,790.7 L160.0,797.6 L200.0,803.2 L240.0,807.4 L280.0,810.1 L320.0,811.3 L360.0,810.9 L400.0,809.1 L440.0,805.9 L480.0,801.6 L520.0,796.4 L560.0,790.4 L600.0,784.1 L640.0,777.5 L680.0,771.1 L720.0,765.1 L760.0,759.6 L800.0,755.0 L840.0,751.2 L880.0,748.6 L920.0,747.2 L960.0,746.9 L1000.0,747.8 L1040.0,749.8 L1080.0,752.8 L1120.0,756.6 L1160.0,761.2 L1200.0,766.2 L1240.0,771.6 L1280.0,777.1 L1320.0,782.4 L1360.0,787.5 L1400.0,792.1 L1440.0,796.1 L1480.0,799.3 L1520.0,801.6 L1560.0,803.0 L1600.0,803.4 L1600,900 Z" fill="#0d3b22"/><path d="M5,800 L5,760 M5,760 C-9,754 -11,738 -1,728 M5,760 C19,756 22,740 12,730" stroke="#3db96a" stroke-width="3" fill="none" stroke-linecap="round" opacity="0.55"/><path d="M71,800 L71,760 M71,760 C57,754 55,738 65,728 M71,760 C85,756 88,740 78,730" stroke="#3db96a" stroke-width="3" fill="none" stroke-linecap="round" opacity="0.55"/><path d="M128,800 L128,760 M128,760 C114,754 112,738 122,728 M128,760 C142,756 145,740 135,730" stroke="#3db96a" stroke-width="3" fill="none" stroke-linecap="round" opacity="0.55"/><path d="M184,800 L184,760 M184,760 C170,754 168,738 178,728 M184,760 C198,756 201,740 191,730" stroke="#3db96a" stroke-width="3" fill="none" stroke-linecap="round" opacity="0.55"/><path d="M237,800 L237,760 M237,760 C223,754 221,738 231,728 M237,760 C251,756 254,740 244,730" stroke="#3db96a" stroke-width="3" fill="none" stroke-linecap="round" opacity="0.55"/><path d="M305,800 L305,760 M305,760 C291,754 289,738 299,728 M305,760 C319,756 322,740 312,730" stroke="#3db96a" stroke-width="3" fill="none" stroke-linecap="round" opacity="0.55"/><path d="M363,800 L363,760 M363,760 C349,754 347,738 357,728 M363,760 C377,756 380,740 370,730" stroke="#3db96a" stroke-width="3" fill="none" stroke-linecap="round" opacity="0.55"/><path d="M416,800 L416,760 M416,760 C402,754 400,738 410,728 M416,760 C430,756 433,740 423,730" stroke="#3db96a" stroke-width="3" fill="none" stroke-linecap="round" opacity="0.55"/><path d="M474,800 L474,760 M474,760 C460,754 458,738 468,728 M474,760 C488,756 491,740 481,730" stroke="#3db96a" stroke-width="3" fill="none" stroke-linecap="round" opacity="0.55"/><path d="M528,800 L528,760 M528,760 C514,754 512,738 522,728 M528,760 C542,756 545,740 535,730" stroke="#3db96a" stroke-width="3" fill="none" stroke-linecap="round" opacity="0.55"/><path d="M582,800 L582,760 M582,760 C568,754 566,738 576,728 M582,760 C596,756 599,740 589,730" stroke="#3db96a" stroke-width="3" fill="none" stroke-linecap="round" opacity="0.55"/><path d="M646,800 L646,760 M646,760 C632,754 630,738 640,728 M646,760 C660,756 663,740 653,730" stroke="#3db96a" stroke-width="3" fill="none" stroke-linecap="round" opacity="0.55"/><path d="M707,800 L707,760 M707,760 C693,754 691,738 701,728 M707,760 C721,756 724,740 714,730" stroke="#3db96a" stroke-width="3" fill="none" stroke-linecap="round" opacity="0.55"/><path d="M757,800 L757,760 M757,760 C743,754 741,738 751,728 M757,760 C771,756 774,740 764,730" stroke="#3db96a" stroke-width="3" fill="none" stroke-linecap="round" opacity="0.55"/><path d="M827,800 L827,760 M827,760 C813,754 811,738 821,728 M827,760 C841,756 844,740 834,730" stroke="#3db96a" stroke-width="3" fill="none" stroke-linecap="round" opacity="0.55"/><path d="M876,800 L876,760 M876,760 C862,754 860,738 870,728 M876,760 C890,756 893,740 883,730" stroke="#3db96a" stroke-width="3" fill="none" stroke-linecap="round" opacity="0.55"/><path d="M934,800 L934,760 M934,760 C920,754 918,738 928,728 M934,760 C948,756 951,740 941,730" stroke="#3db96a" stroke-width="3" fill="none" stroke-linecap="round" opacity="0.55"/><path d="M989,800 L989,760 M989,760 C975,754 973,738 983,728 M989,760 C1003,756 1006,740 996,730" stroke="#3db96a" stroke-width="3" fill="none" stroke-linecap="round" opacity="0.55"/><path d="M1062,800 L1062,760 M1062,760 C1048,754 1046,738 1056,728 M1062,760 C1076,756 1079,740 1069,730" stroke="#3db96a" stroke-width="3" fill="none" stroke-linecap="round" opacity="0.55"/><path d="M1116,800 L1116,760 M1116,760 C1102,754 1100,738 1110,728 M1116,760 C1130,756 1133,740 1123,730" stroke="#3db96a" stroke-width="3" fill="none" stroke-linecap="round" opacity="0.55"/><path d="M1176,800 L1176,760 M1176,760 C1162,754 1160,738 1170,728 M1176,760 C1190,756 1193,740 1183,730" stroke="#3db96a" stroke-width="3" fill="none" stroke-linecap="round" opacity="0.55"/><path d="M1230,800 L1230,760 M1230,760 C1216,754 1214,738 1224,728 M1230,760 C1244,756 1247,740 1237,730" stroke="#3db96a" stroke-width="3" fill="none" stroke-linecap="round" opacity="0.55"/><path d="M1279,800 L1279,760 M1279,760 C1265,754 1263,738 1273,728 M1279,760 C1293,756 1296,740 1286,730" stroke="#3db96a" stroke-width="3" fill="none" stroke-linecap="round" opacity="0.55"/><path d="M1341,800 L1341,760 M1341,760 C1327,754 1325,738 1335,728 M1341,760 C1355,756 1358,740 1348,730" stroke="#3db96a" stroke-width="3" fill="none" stroke-linecap="round" opacity="0.55"/><path d="M1402,800 L1402,760 M1402,760 C1388,754 1386,738 1396,728 M1402,760 C1416,756 1419,740 1409,730" stroke="#3db96a" stroke-width="3" fill="none" stroke-linecap="round" opacity="0.55"/><path d="M1454,800 L1454,760 M1454,760 C1440,754 1438,738 1448,728 M1454,760 C1468,756 1471,740 1461,730" stroke="#3db96a" stroke-width="3" fill="none" stroke-linecap="round" opacity="0.55"/><path d="M1525,800 L1525,760 M1525,760 C1511,754 1509,738 1519,728 M1525,760 C1539,756 1542,740 1532,730" stroke="#3db96a" stroke-width="3" fill="none" stroke-linecap="round" opacity="0.55"/><path d="M1574,800 L1574,760 M1574,760 C1560,754 1558,738 1568,728 M1574,760 C1588,756 1591,740 1581,730" stroke="#3db96a" stroke-width="3" fill="none" stroke-linecap="round" opacity="0.55"/><path d="M4,840 L4,786 M4,786 C-10,780 -12,764 -2,754 M4,786 C18,782 21,766 11,756" stroke="#3db96a" stroke-width="3" fill="none" stroke-linecap="round" opacity="0.55"/><path d="M73,840 L73,786 M73,786 C59,780 57,764 67,754 M73,786 C87,782 90,766 80,756" stroke="#3db96a" stroke-width="3" fill="none" stroke-linecap="round" opacity="0.55"/><path d="M120,840 L120,786 M120,786 C106,780 104,764 114,754 M120,786 C134,782 137,766 127,756" stroke="#3db96a" stroke-width="3" fill="none" stroke-linecap="round" opacity="0.55"/><path d="M191,840 L191,786 M191,786 C177,780 175,764 185,754 M191,786 C205,782 208,766 198,756" stroke="#3db96a" stroke-width="3" fill="none" stroke-linecap="round" opacity="0.55"/><path d="M241,840 L241,786 M241,786 C227,780 225,764 235,754 M241,786 C255,782 258,766 248,756" stroke="#3db96a" stroke-width="3" fill="none" stroke-linecap="round" opacity="0.55"/><path d="M301,840 L301,786 M301,786 C287,780 285,764 295,754 M301,786 C315,782 318,766 308,756" stroke="#3db96a" stroke-width="3" fill="none" stroke-linecap="round" opacity="0.55"/><path d="M355,840 L355,786 M355,786 C341,780 339,764 349,754 M355,786 C369,782 372,766 362,756" stroke="#3db96a" stroke-width="3" fill="none" stroke-linecap="round" opacity="0.55"/><path d="M416,840 L416,786 M416,786 C402,780 400,764 410,754 M416,786 C430,782 433,766 423,756" stroke="#3db96a" stroke-width="3" fill="none" stroke-linecap="round" opacity="0.55"/><path d="M469,840 L469,786 M469,786 C455,780 453,764 463,754 M469,786 C483,782 486,766 476,756" stroke="#3db96a" stroke-width="3" fill="none" stroke-linecap="round" opacity="0.55"/><path d="M525,840 L525,786 M525,786 C511,780 509,764 519,754 M525,786 C539,782 542,766 532,756" stroke="#3db96a" stroke-width="3" fill="none" stroke-linecap="round" opacity="0.55"/><path d="M596,840 L596,786 M596,786 C582,780 580,764 590,754 M596,786 C610,782 613,766 603,756" stroke="#3db96a" stroke-width="3" fill="none" stroke-linecap="round" opacity="0.55"/><path d="M644,840 L644,786 M644,786 C630,780 628,764 638,754 M644,786 C658,782 661,766 651,756" stroke="#3db96a" stroke-width="3" fill="none" stroke-linecap="round" opacity="0.55"/><path d="M710,840 L710,786 M710,786 C696,780 694,764 704,754 M710,786 C724,782 727,766 717,756" stroke="#3db96a" stroke-width="3" fill="none" stroke-linecap="round" opacity="0.55"/><path d="M759,840 L759,786 M759,786 C745,780 743,764 753,754 M759,786 C773,782 776,766 766,756" stroke="#3db96a" stroke-width="3" fill="none" stroke-linecap="round" opacity="0.55"/><path d="M830,840 L830,786 M830,786 C816,780 814,764 824,754 M830,786 C844,782 847,766 837,756" stroke="#3db96a" stroke-width="3" fill="none" stroke-linecap="round" opacity="0.55"/><path d="M886,840 L886,786 M886,786 C872,780 870,764 880,754 M886,786 C900,782 903,766 893,756" stroke="#3db96a" stroke-width="3" fill="none" stroke-linecap="round" opacity="0.55"/><path d="M942,840 L942,786 M942,786 C928,780 926,764 936,754 M942,786 C956,782 959,766 949,756" stroke="#3db96a" stroke-width="3" fill="none" stroke-linecap="round" opacity="0.55"/><path d="M1000,840 L1000,786 M1000,786 C986,780 984,764 994,754 M1000,786 C1014,782 1017,766 1007,756" stroke="#3db96a" stroke-width="3" fill="none" stroke-linecap="round" opacity="0.55"/><path d="M1055,840 L1055,786 M1055,786 C1041,780 1039,764 1049,754 M1055,786 C1069,782 1072,766 1062,756" stroke="#3db96a" stroke-width="3" fill="none" stroke-linecap="round" opacity="0.55"/><path d="M1116,840 L1116,786 M1116,786 C1102,780 1100,764 1110,754 M1116,786 C1130,782 1133,766 1123,756" stroke="#3db96a" stroke-width="3" fill="none" stroke-linecap="round" opacity="0.55"/><path d="M1164,840 L1164,786 M1164,786 C1150,780 1148,764 1158,754 M1164,786 C1178,782 1181,766 1171,756" stroke="#3db96a" stroke-width="3" fill="none" stroke-linecap="round" opacity="0.55"/><path d="M1228,840 L1228,786 M1228,786 C1214,780 1212,764 1222,754 M1228,786 C1242,782 1245,766 1235,756" stroke="#3db96a" stroke-width="3" fill="none" stroke-linecap="round" opacity="0.55"/><path d="M1291,840 L1291,786 M1291,786 C1277,780 1275,764 1285,754 M1291,786 C1305,782 1308,766 1298,756" stroke="#3db96a" stroke-width="3" fill="none" stroke-linecap="round" opacity="0.55"/><path d="M1339,840 L1339,786 M1339,786 C1325,780 1323,764 1333,754 M1339,786 C1353,782 1356,766 1346,756" stroke="#3db96a" stroke-width="3" fill="none" stroke-linecap="round" opacity="0.55"/><path d="M1409,840 L1409,786 M1409,786 C1395,780 1393,764 1403,754 M1409,786 C1423,782 1426,766 1416,756" stroke="#3db96a" stroke-width="3" fill="none" stroke-linecap="round" opacity="0.55"/><path d="M1466,840 L1466,786 M1466,786 C1452,780 1450,764 1460,754 M1466,786 C1480,782 1483,766 1473,756" stroke="#3db96a" stroke-width="3" fill="none" stroke-linecap="round" opacity="0.55"/><path d="M1517,840 L1517,786 M1517,786 C1503,780 1501,764 1511,754 M1517,786 C1531,782 1534,766 1524,756" stroke="#3db96a" stroke-width="3" fill="none" stroke-linecap="round" opacity="0.55"/><path d="M1574,840 L1574,786 M1574,786 C1560,780 1558,764 1568,754 M1574,786 C1588,782 1591,766 1581,756" stroke="#3db96a" stroke-width="3" fill="none" stroke-linecap="round" opacity="0.55"/><path d="M9,880 L9,812 M9,812 C-5,806 -7,790 3,780 M9,812 C23,808 26,792 16,782" stroke="#3db96a" stroke-width="3" fill="none" stroke-linecap="round" opacity="0.55"/><path d="M66,880 L66,812 M66,812 C52,806 50,790 60,780 M66,812 C80,808 83,792 73,782" stroke="#3db96a" stroke-width="3" fill="none" stroke-linecap="round" opacity="0.55"/><path d="M134,880 L134,812 M134,812 C120,806 118,790 128,780 M134,812 C148,808 151,792 141,782" stroke="#3db96a" stroke-width="3" fill="none" stroke-linecap="round" opacity="0.55"/><path d="M182,880 L182,812 M182,812 C168,806 166,790 176,780 M182,812 C196,808 199,792 189,782" stroke="#3db96a" stroke-width="3" fill="none" stroke-linecap="round" opacity="0.55"/><path d="M234,880 L234,812 M234,812 C220,806 218,790 228,780 M234,812 C248,808 251,792 241,782" stroke="#3db96a" stroke-width="3" fill="none" stroke-linecap="round" opacity="0.55"/><path d="M293,880 L293,812 M293,812 C279,806 277,790 287,780 M293,812 C307,808 310,792 300,782" stroke="#3db96a" stroke-width="3" fill="none" stroke-linecap="round" opacity="0.55"/><path d="M361,880 L361,812 M361,812 C347,806 345,790 355,780 M361,812 C375,808 378,792 368,782" stroke="#3db96a" stroke-width="3" fill="none" stroke-linecap="round" opacity="0.55"/><path d="M424,880 L424,812 M424,812 C410,806 408,790 418,780 M424,812 C438,808 441,792 431,782" stroke="#3db96a" stroke-width="3" fill="none" stroke-linecap="round" opacity="0.55"/><path d="M474,880 L474,812 M474,812 C460,806 458,790 468,780 M474,812 C488,808 491,792 481,782" stroke="#3db96a" stroke-width="3" fill="none" stroke-linecap="round" opacity="0.55"/><path d="M532,880 L532,812 M532,812 C518,806 516,790 526,780 M532,812 C546,808 549,792 539,782" stroke="#3db96a" stroke-width="3" fill="none" stroke-linecap="round" opacity="0.55"/><path d="M591,880 L591,812 M591,812 C577,806 575,790 585,780 M591,812 C605,808 608,792 598,782" stroke="#3db96a" stroke-width="3" fill="none" stroke-linecap="round" opacity="0.55"/><path d="M652,880 L652,812 M652,812 C638,806 636,790 646,780 M652,812 C666,808 669,792 659,782" stroke="#3db96a" stroke-width="3" fill="none" stroke-linecap="round" opacity="0.55"/><path d="M702,880 L702,812 M702,812 C688,806 686,790 696,780 M702,812 C716,808 719,792 709,782" stroke="#3db96a" stroke-width="3" fill="none" stroke-linecap="round" opacity="0.55"/><path d="M766,880 L766,812 M766,812 C752,806 750,790 760,780 M766,812 C780,808 783,792 773,782" stroke="#3db96a" stroke-width="3" fill="none" stroke-linecap="round" opacity="0.55"/><path d="M823,880 L823,812 M823,812 C809,806 807,790 817,780 M823,812 C837,808 840,792 830,782" stroke="#3db96a" stroke-width="3" fill="none" stroke-linecap="round" opacity="0.55"/><path d="M882,880 L882,812 M882,812 C868,806 866,790 876,780 M882,812 C896,808 899,792 889,782" stroke="#3db96a" stroke-width="3" fill="none" stroke-linecap="round" opacity="0.55"/><path d="M933,880 L933,812 M933,812 C919,806 917,790 927,780 M933,812 C947,808 950,792 940,782" stroke="#3db96a" stroke-width="3" fill="none" stroke-linecap="round" opacity="0.55"/><path d="M991,880 L991,812 M991,812 C977,806 975,790 985,780 M991,812 C1005,808 1008,792 998,782" stroke="#3db96a" stroke-width="3" fill="none" stroke-linecap="round" opacity="0.55"/><path d="M1052,880 L1052,812 M1052,812 C1038,806 1036,790 1046,780 M1052,812 C1066,808 1069,792 1059,782" stroke="#3db96a" stroke-width="3" fill="none" stroke-linecap="round" opacity="0.55"/><path d="M1119,880 L1119,812 M1119,812 C1105,806 1103,790 1113,780 M1119,812 C1133,808 1136,792 1126,782" stroke="#3db96a" stroke-width="3" fill="none" stroke-linecap="round" opacity="0.55"/><path d="M1168,880 L1168,812 M1168,812 C1154,806 1152,790 1162,780 M1168,812 C1182,808 1185,792 1175,782" stroke="#3db96a" stroke-width="3" fill="none" stroke-linecap="round" opacity="0.55"/><path d="M1230,880 L1230,812 M1230,812 C1216,806 1214,790 1224,780 M1230,812 C1244,808 1247,792 1237,782" stroke="#3db96a" stroke-width="3" fill="none" stroke-linecap="round" opacity="0.55"/><path d="M1283,880 L1283,812 M1283,812 C1269,806 1267,790 1277,780 M1283,812 C1297,808 1300,792 1290,782" stroke="#3db96a" stroke-width="3" fill="none" stroke-linecap="round" opacity="0.55"/><path d="M1338,880 L1338,812 M1338,812 C1324,806 1322,790 1332,780 M1338,812 C1352,808 1355,792 1345,782" stroke="#3db96a" stroke-width="3" fill="none" stroke-linecap="round" opacity="0.55"/><path d="M1395,880 L1395,812 M1395,812 C1381,806 1379,790 1389,780 M1395,812 C1409,808 1412,792 1402,782" stroke="#3db96a" stroke-width="3" fill="none" stroke-linecap="round" opacity="0.55"/><path d="M1465,880 L1465,812 M1465,812 C1451,806 1449,790 1459,780 M1465,812 C1479,808 1482,792 1472,782" stroke="#3db96a" stroke-width="3" fill="none" stroke-linecap="round" opacity="0.55"/><path d="M1522,880 L1522,812 M1522,812 C1508,806 1506,790 1516,780 M1522,812 C1536,808 1539,792 1529,782" stroke="#3db96a" stroke-width="3" fill="none" stroke-linecap="round" opacity="0.55"/><path d="M1574,880 L1574,812 M1574,812 C1560,806 1558,790 1568,780 M1574,812 C1588,808 1591,792 1581,782" stroke="#3db96a" stroke-width="3" fill="none" stroke-linecap="round" opacity="0.55"/>
</svg>