<svg viewBox="0 0 1600 900" xmlns="http://www.w3.org/2000/svg">
<rect width="1600" height="900" fill="#0a2e1a"/>
<rect x="0" y="560" width="1600" height="80" fill="#1a5c35" opacity="0.6"/><rect x="0" y="640" width="1600" height="80" fill="#d4a017" opacity="0.4"/><rect x="0" y="720" width="1600" height="180" fill="#5c3d1f" opacity="0.55"/><rect x="0" y="720" width="1600" height="180" fill="#8a5a2b" opacity="0.15"/><path d="M60,520 L60,566 M60,620 Q30,680 22,751 M60,620 Q88,670 108,789" stroke="#5dd98a" stroke-width="2.5" fill="none" opacity="0.3" stroke-linecap="round"/><path d="M190,520 L190,580 M190,620 Q160,680 145,762 M190,620 Q218,670 219,752" stroke="#5dd98a" stroke-width="2.5" fill="none" opacity="0.3" stroke-linecap="round"/><path d="M320,520 L320,560 M320,620 Q290,680 284,772 M320,620 Q348,670 364,786" stroke="#5dd98a" stroke-width="2.5" fill="none" opacity="0.3" stroke-linecap="round"/><path d="M450,520 L450,567 M450,620 Q420,680 403,771 M450,620 Q478,670 479,779" stroke="#5dd98a" stroke-width="2.5" fill="none" opacity="0.3" stroke-linecap="round"/><path d="M580,520 L580,564 M580,620 Q550,680 533,803 M580,620 Q608,670 617,797" stroke="#5dd98a" stroke-width="2.5" fill="none" opacity="0.3" stroke-linecap="round"/><path d="M710,520 L710,580 M710,620 Q680,680 673,765 M710,620 Q738,670 741,755" stroke="#5dd98a" stroke-width="2.5" fill="none" opacity="0.3" stroke-linecap="round"/><path d="M840,520 L840,575 M840,620 Q810,680 800,768 M840,620 Q868,670 868,761" stroke="#5dd98a" stroke-width="2.5" fill="none" opacity="0.3" stroke-linecap="round"/><path d="M970,520 L970,568 M970,620 Q940,680 921,765 M970,620 Q998,670 1004,765" stroke="#5dd98a" stroke-width="2.5" fill="none" opacity="0.3" stroke-linecap="round"/><path d="M1100,520 L1100,570 M1100,620 Q1070,680 1061,801 M1100,620 Q1128,670 1134,746" stroke="#5dd98a" stroke-width="2.5" fill="none" opacity="0.3" stroke-linecap="round"/><path d="M1230,520 L1230,566 M1230,620 Q1200,680 1184,785 M1230,620 Q1258,670 1268,759" stroke="#5dd98a" stroke-width="2.5" fill="none" opacity="0.3" stroke-linecap="round"/><path d="M1360,520 L1360,562 M1360,620 Q1330,680 1325,787 M1360,620 Q1388,670 1400,782" stroke="#5dd98a" stroke-width="2.5" fill="none" opacity="0.3" stroke-linecap="round"/><path d="M1490,520 L1490,577 M1490,620 Q1460,680 1441,761 M1490,620 Q1518,670 1527,782" stroke="#5dd98a" stroke-width="2.5" fill="none" opacity="0.3" stroke-linecap="round"/>
</svg>